<svg xmlns="http://www.w3.org/2000/svg" version="1.1" xmlns:xlink="http://www.w3.org/1999/xlink" xmlns:svgjs="http://svgjs.dev/svgjs" viewBox="0 0 5.538034562693474 4.646658268068491"><g transform="matrix(1,0,0,1,2.770375519928681,4.411750023088653)"><rect width="5.538034562693474" height="5.538034562693474" x="-2.770375519928681" y="-4.857438170401144" fill="#000000"></rect><g transform="matrix(1,0,0,1,0,0)"><path d=" M -2.137255490285821 -1.9849263987798436 L -1.667170463738791 -1.6955476369187175 Q -1.649427588975497 -1.6857910803984044 -1.6412086112031843 -1.6698867286549905 Q -1.6329896334308716 -1.6539823769115767 -1.6355261350387476 -1.6371726725836226 Q -1.6395546964159626 -1.6104749068862836 -1.6563264661701802 -1.5998585167600916 Q -1.673098235924398 -1.5892421266338996 -1.6948519709370446 -1.592524658126445 Q -1.703751226169491 -1.59386751191885 -1.7131916696080742 -1.5983259900990043 L -2.2673454512407494 -1.93376389240315 Q -2.2859279261640477 -1.9446584610373354 -2.294342895050962 -1.9626150280430932 Q -2.302757863937876 -1.980571595048851 -2.2979453381022554 -1.9990604996968142 Q -2.2952596305174455 -2.016859010161707 -2.282564473437116 -2.0306188425264478 Q -2.269869316356787 -2.0443786748911883 -2.2500375579164187 -2.048465404288014 L -1.633892491344732 -2.204277011491624 Q -1.6202919816798622 -2.2072813644761755 -1.6094151141735389 -2.2056400987299027 Q -1.5827173484761998 -2.201611537352688 -1.5695075548815272 -2.1819201343253223 Q -1.5562977612868545 -2.1622287312979567 -1.5594310868024661 -2.1414638024222485 Q -1.562116794387276 -2.123665291957356 -1.5751571485591407 -2.110968868718021 Q -1.5881975027310054 -2.0982724454786856 -1.6081784671483075 -2.0931969099449215 L -2.1356496267952725 -1.9553557849470242 L -2.137255490285821 -1.9849263987798436 M -1.7831794271603354 -1.7444037563497445 L -1.8886858041768972 -1.815946781228758 L -1.8484001904047482 -2.082924438202148 L -1.7318525710950787 -2.0845530674565826 L -1.7831794271603354 -1.7444037563497445 M -1.8405036350223725 -2.7917199760076072 Q -1.8030396600914411 -2.855535730977478 -1.7568146406467542 -2.8730428031866824 Q -1.7105896212020673 -2.8905498753958874 -1.6588363912365693 -2.876981412397511 Q -1.6070831612710716 -2.863412949399135 -1.5527535320399657 -2.831517943714694 L -1.3319855148469 -2.7019128412509317 Q -1.309563763100729 -2.688749823031956 -1.303078788260906 -2.665229723088995 Q -1.296593813421083 -2.6417096231460344 -1.3097568316400587 -2.6192878713998637 Q -1.3229198498590347 -2.596866119653693 -1.346618002369826 -2.5910654673131996 Q -1.3703161548806175 -2.585264814972706 -1.3927379066267882 -2.598427833191682 L -1.613505923819854 -2.728032935655444 Q -1.6419643010361478 -2.7447398433949135 -1.6691205347336406 -2.7508258085087753 Q -1.6962767684311337 -2.756911773622637 -1.7212127079986799 -2.746039841049093 Q -1.746148647566226 -2.735167908475549 -1.7669057147576879 -2.6998105307219724 Q -1.7871565120176507 -2.665315528035556 -1.7872809340593085 -2.6334998947846593 Q -1.7874053561009664 -2.6016842615337628 -1.7718933308279519 -2.5757636698752115 Q -1.7563813055549375 -2.54984307821666 -1.727922928338644 -2.533136170477191 L -1.5071549111455782 -2.4035310680134288 Q -1.4847331593994073 -2.390368049794453 -1.4782481845595843 -2.366847949851492 Q -1.4717632097197613 -2.3433278499085315 -1.4849262279387372 -2.320906098162361 Q -1.4980892461577129 -2.29848434641619 -1.5217873986685044 -2.2926836940756967 Q -1.5454855511792958 -2.2868830417352033 -1.5679073029254664 -2.300046059954179 L -1.9240682056627172 -2.509135541663295 Q -1.9464899574088879 -2.522298559882271 -1.9529749322487109 -2.5458186598252315 Q -1.959459907088534 -2.5693387597681925 -1.9462968888695582 -2.591760511514363 Q -1.9331338706505823 -2.614182263260534 -1.909435718139791 -2.6199829156010273 Q -1.8857375656289994 -2.6257835679415207 -1.8633158138828287 -2.6126205497225445 L -1.8262336859949309 -2.5908509426680846 L -1.8364148601688983 -2.5794341264551757 Q -1.8465188069271337 -2.595802090895104 -1.8547285319012776 -2.6203347307010625 Q -1.8629382568754214 -2.644867370507021 -1.8659544245926698 -2.673308585887195 Q -1.8689705923099182 -2.701749801267369 -1.8633437025016295 -2.7320745124957613 Q -1.8577168126933408 -2.7623992237241533 -1.8405036350223725 -2.7917199760076072 M -0.9531356991985818 -3.3013042226224973 Q -0.9024364543815768 -3.236855897780145 -0.8924811014021018 -3.1651663521890754 Q -0.8825257484226268 -3.0934768065980056 -0.9092220704861573 -3.0279439416501015 Q -0.9359183925496879 -2.9624110767021974 -0.9956509863060146 -2.915421532725461 Q -1.0553835800623412 -2.8684319887487244 -1.1253597452623394 -2.857915986471121 Q -1.1953359104623378 -2.847399984193518 -1.2626659916551264 -2.8739548362279854 Q -1.3299960728479152 -2.9005096882624533 -1.3806953176649204 -2.964958013104806 Q -1.4313945624819253 -3.029406337947158 -1.4413499154614002 -3.101095883538228 Q -1.4513052684408754 -3.1727854291292976 -1.4249180881140338 -3.238711271667704 Q -1.3985309077871924 -3.3046371142061104 -1.3387983140308657 -3.3516266581828464 Q -1.279065720274539 -3.398616202159583 -1.2087804133378517 -3.4087392268466843 Q -1.1384951064011644 -3.4188622515337856 -1.0711650252083755 -3.392307399499318 Q -1.003834944015587 -3.36575254746485 -0.9531356991985818 -3.3013042226224973 M -1.0474503209190975 -3.2271102058171244 Q -1.0789827780613812 -3.2671939200483435 -1.1182804895236484 -3.2839924281317536 Q -1.1575782009859157 -3.3007909362151633 -1.1976776076715043 -3.295965215184709 Q -1.237777014357093 -3.2911394941542547 -1.2707871319592736 -3.2651715882723735 Q -1.303797249561454 -3.2392036823904933 -1.3179287503651622 -3.201367843757858 Q -1.3320602511688702 -3.163532005125223 -1.324986702127779 -3.1213838746333105 Q -1.317913153086688 -3.079235744141398 -1.2863806959444044 -3.039152029910179 Q -1.255466522275499 -2.999854270859964 -1.2161688108132316 -2.983055762776554 Q -1.1768710993509643 -2.966257254693144 -1.136771692665376 -2.971082975723599 Q -1.0966722859797873 -2.975908696754053 -1.0636621683776066 -3.001876602635934 Q -1.030652050775426 -3.0278445085178145 -1.016520549971718 -3.0656803471504492 Q -1.00238904916801 -3.1035161857830844 -1.0094625982091012 -3.145664316274997 Q -1.0165361472501921 -3.1878124467669093 -1.0474503209190975 -3.2271102058171244 M -0.5750256552327132 -3.7380354475861237 Q -0.5041830698839097 -3.7594206784966726 -0.45836710104396444 -3.7408694790945543 Q -0.41255113220401907 -3.722318279692436 -0.3837868500492768 -3.6772060189186466 Q -0.35502256789453457 -3.6320937581448574 -0.3368162226598779 -3.57178182737493 L -0.2628348832936538 -3.326704775357448 Q -0.2553211535142717 -3.3018141372619225 -0.2665384833790696 -3.2801479998418763 Q -0.27775581324386756 -3.2584818624218306 -0.30264645133939305 -3.2509681326424484 Q -0.32753708943491855 -3.2434544028630663 -0.34886905554119246 -3.2552948936485357 Q -0.3702010216474664 -3.2671353844340048 -0.3777147514268485 -3.2920260225295306 L -0.45169609079307255 -3.5371030745470122 Q -0.46123274782074986 -3.568695038283641 -0.4770282963963496 -3.591607930837744 Q -0.4928238449719493 -3.614520823391847 -0.5185089878400907 -3.6234803677911547 Q -0.5441941307082321 -3.6324399121904625 -0.5834447523204069 -3.6205913383075905 Q -0.6217380416981385 -3.6090317540316184 -0.64344084443494 -3.5857672240907945 Q -0.6651436471717413 -3.5625026941499707 -0.6713667399883373 -3.5329430406371833 Q -0.6775898328049332 -3.5033833871243965 -0.6680531757772559 -3.4717914233877676 L -0.5940718364110318 -3.226714371370286 Q -0.5865581066316496 -3.20182373327476 -0.5977754364964476 -3.1801575958547144 Q -0.6089927663612456 -3.1584914584346686 -0.6338834044567712 -3.1509777286552865 Q -0.6587740425522967 -3.1434639988759043 -0.6801060086585705 -3.1553044896613733 Q -0.7014379747648444 -3.167144980446843 -0.7089517045442265 -3.192035618542368 L -0.8283044121936427 -3.5874138313674466 Q -0.8358181419730248 -3.612304469462972 -0.8246008121082269 -3.633970606883018 Q -0.8133834822434289 -3.655636744303064 -0.7884928441479034 -3.663150474082446 Q -0.7636022060523779 -3.6706642038618282 -0.742270239946104 -3.658823713076359 Q -0.7209382738398301 -3.64698322229089 -0.713424544060448 -3.6220925841953644 L -0.7009979909637776 -3.5809272981143025 L -0.7162249433011247 -3.579464450714143 Q -0.7125217765084235 -3.5983400051617727 -0.7018824258574242 -3.621920807050705 Q -0.6912430752064249 -3.6455016089396377 -0.6741372571315175 -3.6684230178838577 Q -0.6570314390566102 -3.6913444268280777 -0.6323031951301976 -3.709777113889812 Q -0.607574951203785 -3.728209800951547 -0.5750256552327132 -3.7380354475861237 M 0.2910282270368453 -3.371992950019837 Q 0.3169747179815491 -3.370325734479961 0.3333806616401782 -3.3527375278439826 Q 0.34978660529880745 -3.3351493212080037 0.3481193897589313 -3.3092028302633 Q 0.3465162978936658 -3.284254281278008 0.3279942729728861 -3.268910403253401 Q 0.3094722480521064 -3.253566525228794 0.2835257571074026 -3.2552337407686704 L -0.040805379701394695 -3.276073935017122 Q -0.06675187064609849 -3.277741150556998 -0.0830936906301171 -3.2963272991523884 Q -0.09943551061413569 -3.314913447747779 -0.09776829507425956 -3.340859938692483 L -0.06070481114932072 -3.917670391232436 Q -0.059037595609444576 -3.94361688217714 -0.0399524760343484 -3.959926640323853 Q -0.020867356459252223 -3.9762363984705664 0.007075018404274935 -3.974440935581469 Q 0.031025625430155357 -3.972901967390814 0.048365387373585644 -3.954251695120813 Q 0.06570514931701593 -3.9356014228508123 0.06403793377713979 -3.9096549319061085 L 0.029475273162015148 -3.3717642157832106 L 0.008610652523338674 -3.390139949934643 L 0.2910282270368453 -3.371992950019837 M 0.6716770066871234 -3.11347917716526 Q 0.5939889064932047 -3.1479691624981023 0.551269944342569 -3.205775652382652 Q 0.5085509821919334 -3.263582142267202 0.5026843674720167 -3.332927890743428 Q 0.49681775275210005 -3.4022736392196546 0.5280616218183216 -3.4726499182188517 Q 0.5645804298178013 -3.554907906659471 0.6237066618850189 -3.5981350819261197 Q 0.6828328939522365 -3.641362257192768 0.7505535693964462 -3.64849738980401 Q 0.8182742448406559 -3.6556325224152517 0.8785967696971104 -3.6288520632156334 Q 0.9252096298134617 -3.608158072015928 0.9582745576585631 -3.5705022551133796 Q 0.9913394855036645 -3.5328464382108313 1.0085182977641165 -3.4852844953434494 Q 1.0256971100245686 -3.437722552476067 1.0249569542363206 -3.3855334523745215 Q 1.0242167984480726 -3.333344352272976 1.0023055136483847 -3.2839895592086044 Q 0.9916531871991833 -3.2624598601577666 0.969115121511146 -3.256053957017559 Q 0.9465770558231088 -3.249648053877352 0.9246415922389435 -3.259386402677213 L 0.5755021301909795 -3.4143884544083383 L 0.5886592540435281 -3.5179591553421865 L 0.9240890513513889 -3.369043571610975 L 0.8958662523993529 -3.359690838357377 L 0.9068218947991968 -3.3843682348895627 Q 0.9167611109670154 -3.411685115787084 0.9091851087207551 -3.440213245588469 Q 0.9016091064744947 -3.4687413753898535 0.8819525423175606 -3.492238598322454 Q 0.8622959781606265 -3.515735821255055 0.8339626710310797 -3.528314521788209 Q 0.8065433415508731 -3.5404874577880356 0.779533806401407 -3.54372551445983 Q 0.7525242712519409 -3.546963571131625 0.7274491697812532 -3.537307521927384 Q 0.7023740683105655 -3.5276514727231434 0.6793358491013414 -3.5028675978108597 Q 0.6562976298921174 -3.4780837228985755 0.6364151677590673 -3.433298818080905 Q 0.6145038829593794 -3.383944025016533 0.6198522100697512 -3.340540161166405 Q 0.6252005371801229 -3.2971362973162766 0.6497343353318135 -3.264909092221014 Q 0.674268133483504 -3.232681887125752 0.7108272394571128 -3.2164513057926496 Q 0.744644412482701 -3.2014380180595303 0.767186507968151 -3.1979950642223653 Q 0.7897286034536012 -3.194552110385201 0.8055163002529784 -3.1968430992046706 Q 0.8213039970523555 -3.1991340880241403 0.8337923383950633 -3.2001545440535786 Q 0.8538958168831352 -3.2010765812977446 0.8685194592725787 -3.194584348764504 Q 0.8886269675580636 -3.185657529031298 0.8957931754735834 -3.166064278557945 Q 0.9029593833891033 -3.146471028084592 0.8948440927225523 -3.128191475097788 Q 0.8838884503227084 -3.1035140785656017 0.8493702564079761 -3.0947679772132886 Q 0.8166800177919242 -3.08521034679432 0.7670279534730293 -3.0892006486466013 Q 0.7173758891541344 -3.0931909504988826 0.6716770066871234 -3.11347917716526 M 1.6698139647138832 -3.0408853827022275 Q 1.6881088101137784 -3.0224111132499885 1.687991494387246 -2.9983697689235926 Q 1.6878741786607134 -2.9743284245971973 1.668689360383388 -2.9553299312973063 L 1.3681272073719604 -2.6576868695990115 Q 1.3496529379197213 -2.639392024199116 1.3252563191807827 -2.6391575159756506 Q 1.300859700441844 -2.6389230077521852 1.2825648550419488 -2.6573972772044243 Q 1.2642700096420536 -2.6758715466566634 1.2647425997811292 -2.700264714933057 Q 1.2652151899202049 -2.72465788320945 1.283689459372444 -2.7429527286093456 L 1.3185063518016638 -2.777431475709148 L 1.3275916661758 -2.7554665704572896 Q 1.3183545314496805 -2.746319147757342 1.2953583075856436 -2.743249345158622 Q 1.272362083721607 -2.7401795425599027 1.2426846552701536 -2.7445670521620418 Q 1.2130072268187002 -2.7489545617641813 1.1812568097552547 -2.7632517998295305 Q 1.1495063926918092 -2.7775490378948797 1.1227677724919625 -2.8045498932481525 Q 1.0742160673922405 -2.8535777621790945 1.0600362682830236 -2.918347996833774 Q 1.0458564691738064 -2.9831182314884535 1.0673972139918197 -3.0501890620535 Q 1.0889379588098331 -3.1172598926185473 1.1464924136418089 -3.1742553725182208 Q 1.2047574172988704 -3.2319545003178902 1.2720352756166218 -3.2528396572523395 Q 1.3393131339343731 -3.2737248141867887 1.4032382517247086 -3.259624129256909 Q 1.4671633695150441 -3.2455234443270293 1.514307778814774 -3.1979166730462594 Q 1.5445646385146008 -3.1673630735675564 1.5606588281883362 -3.1326358931645086 Q 1.5767530178620714 -3.097908712761461 1.5811887107102423 -3.065006210896759 Q 1.585624403558413 -3.0321037090320577 1.5812610471940893 -3.0073759691183914 Q 1.5768976908297654 -2.9826482292047256 1.5669500072785598 -2.972797158604782 L 1.5323815481525853 -2.989229493607935 L 1.584251612383872 -3.0405957903076404 Q 1.602725881836111 -3.0588906357075354 1.6271225005750496 -3.059125143931001 Q 1.651519119313988 -3.0593596521544666 1.6698139647138832 -3.0408853827022275 M 1.2114828617513749 -2.871292929871417 Q 1.2424433693511976 -2.8400287815676277 1.2812958242029593 -2.8320609241396975 Q 1.3201482790547208 -2.8240930667117667 1.3601666205579188 -2.8376865336475205 Q 1.4001849620611166 -2.851280000583274 1.4335807568401642 -2.8843514518830844 Q 1.467687100444298 -2.918126551082891 1.4816704696476448 -2.958010324546831 Q 1.495653838850992 -2.997894098010771 1.4880655323030196 -3.0368224630385243 Q 1.4804772257550471 -3.0757508280662775 1.4495167181552246 -3.107014976370067 Q 1.4192598584553977 -3.13756857584877 1.3804074036036362 -3.1455364332767 Q 1.3415549487518748 -3.153504290704631 1.3015366072486767 -3.1399108237688775 Q 1.2615182657454789 -3.1263173568331237 1.227411922141345 -3.0925422576333172 Q 1.1940161273622976 -3.0594708063335068 1.1800327581589505 -3.0195870328695666 Q 1.1660493889556036 -2.9797032594056265 1.1736376955035759 -2.9407748943778733 Q 1.1812260020515484 -2.90184652935012 1.2114828617513749 -2.871292929871417 M 1.4155680304250364 -2.443578977001938 Q 1.4041571954750978 -2.466941186780665 1.4124208292050504 -2.4898968474676764 Q 1.4206844629350028 -2.5128525081546873 1.44404667271373 -2.524263343104626 L 1.815146389583512 -2.70552006750173 Q 1.8385085993622392 -2.7169309024516686 1.8616940941805733 -2.7093359811203443 Q 1.8848795889989074 -2.7017410597890197 1.896290423948846 -2.6783788500102927 Q 1.907701258898785 -2.6550166402315654 1.899437625168832 -2.6320609795445544 Q 1.8911739914388797 -2.609105318857543 1.8678117816601523 -2.5976944839076044 L 1.7833484078447541 -2.556439926780903 L 1.840478877480337 -2.5921345964000175 Q 1.8668716551395206 -2.5927836629858843 1.8911751356214583 -2.58517834665689 Q 1.915478616103396 -2.577573030327895 1.9363657696085017 -2.5632909850102887 Q 1.9572529231136069 -2.5490089396926825 1.9736161589759467 -2.5291785460477385 Q 1.9899793948382865 -2.509348152402794 2.0009513515209196 -2.486884489154018 Q 2.01411769954008 -2.4599280932554866 2.0078394130106716 -2.4340469588472993 Q 2.0015611264812634 -2.4081658244391124 1.980894556292389 -2.3980716242910898 Q 1.9512425208040045 -2.3835886414700136 1.9307526655755236 -2.392500197603254 Q 1.9102628103470427 -2.401411753736494 1.901485245000936 -2.419382684335515 Q 1.8931465579221345 -2.436455068404585 1.8926337704885592 -2.4534546874899634 Q 1.8921209830549839 -2.470454306575342 1.8833434177088773 -2.488425237174363 Q 1.8754436088973812 -2.504599074713482 1.8596867154476484 -2.517491720245481 Q 1.8439298219979159 -2.53038436577748 1.8209533713155643 -2.536412028180225 Q 1.7979769206332128 -2.5424396905829703 1.7699960940501094 -2.539345608533914 Q 1.742015267467006 -2.5362515264848575 1.7096675923887683 -2.5204519088618653 L 1.4967120647903704 -2.4164377595105004 Q 1.4733498550116433 -2.4050269245605618 1.4501643601933092 -2.4126218458918864 Q 1.426978865374975 -2.4202167672232107 1.4155680304250364 -2.443578977001938 M 2.1524071619812646 -1.8919337131338045 Q 2.162477265273692 -1.8186220972760168 2.137004817775949 -1.7762616862950698 Q 2.111532370278206 -1.733901275314123 2.0624846443466396 -1.7125279138344212 Q 2.0134369184150738 -1.6911545523547196 1.9510229751847952 -1.682581356308464 L 1.6974044122173129 -1.6477442422157431 Q 1.671646276915928 -1.6442060978157012 1.651995668355353 -1.6586665121665785 Q 1.632345059794778 -1.6731269265174558 1.628806915394736 -1.6988850618188407 Q 1.625268770994694 -1.7246431971202256 1.6402925753398294 -1.743866498163467 Q 1.655316379684965 -1.7630897992067085 1.68107451498635 -1.7666279436067505 L 1.934693077953832 -1.8014650576994713 Q 1.9673860958363592 -1.8059557794379861 1.99248287883968 -1.8179828939250202 Q 2.017579661843001 -1.830010008412054 2.0304370075361255 -1.8539826732978673 Q 2.04329435322925 -1.8779553381836802 2.0377149716753373 -1.9185739361589411 Q 2.03227167259835 -1.9582018366226102 2.012678244297453 -1.9832686985605876 Q 1.9930848159965566 -2.008335560498565 1.9648581360239679 -2.019094488778141 Q 1.936631456051379 -2.0298534170577165 1.903938438168852 -2.0253626953192017 L 1.6503198752013697 -1.990525581226481 Q 1.6245617398999848 -1.986987436826439 1.6049111313394098 -2.0014478511773164 Q 1.5852605227788348 -2.0159082655281937 1.5817223783787928 -2.0416664008295786 Q 1.5781842339787509 -2.0674245361309636 1.5932080383238865 -2.0866478371742048 Q 1.6082318426690219 -2.1058711382174464 1.6339899779704068 -2.1094092826174884 L 2.0431480502577903 -2.1656113455873856 Q 2.0689061855591753 -2.1691494899874275 2.08855679411975 -2.15468907563655 Q 2.1082074026803252 -2.140228661285673 2.111745547080367 -2.114470525984288 Q 2.115283691480409 -2.088712390682903 2.1002598871352736 -2.069489089639662 Q 2.0852360827901384 -2.05026578859642 2.0594779474887535 -2.046727644196378 L 2.016877954490309 -2.0408760976886167 L 2.0178088098712137 -2.0561448077932667 Q 2.035875409860595 -2.049541932296661 2.0575074134443536 -2.035353682899633 Q 2.079139417028112 -2.021165433502605 2.0991111716944397 -2.000692792843715 Q 2.1190829263607665 -1.9802201521848248 2.1334316420632957 -1.952918790356374 Q 2.147780357765825 -1.9256174285279233 2.1524071619812646 -1.8919337131338045" fill="#fffdfa" fill-rule="nonzero"></path></g><g transform="matrix(1,0,0,1,0,0)"><g clip-path="url(#SvgjsClipPath1002)"><g clip-path="url(#SvgjsClipPath10005aa137c8-1e70-42eb-a397-17519ebb507f)"><path d=" M -1.0430572851047681 -0.9774278221143953 L 0.6316923589020655 -0.9774278221143953 C 0.6390903363448059 -0.9774278221143953 0.6461853118919063 -0.9744889870180808 0.651416471908733 -0.969257827001254 C 0.6566476319255601 -0.9640266669844271 0.6595864670218743 -0.9569316914373269 0.6595864670218743 -0.9495337139945863 L 0.6595864670218743 -0.2603984036254565 C 0.6595864670218743 -0.24500534691070275 0.6471079290212753 -0.23252680891010336 0.6317148723065207 -0.23252680891010336 L -1.043079798509223 -0.23252680891010336 C -1.0504718050258597 -0.23252680891010336 -1.0575610542004443 -0.23546327206525852 -1.0627879921349332 -0.24069020999974766 C -1.068014930069422 -0.24591714793423636 -1.070951393224577 -0.25300639710882056 -1.070951393224577 -0.2603984036254574 L -1.070951393224577 -0.9495337139945867 C -1.0709513928999306 -0.9649392051071126 -1.0584627750416455 -0.9774278224390418 -1.043057284516944 -0.9774278221143955 Z" fill="#b7b7a5" transform="matrix(1,0,0,1,0,0)" fill-rule="nonzero"></path></g><g clip-path="url(#SvgjsClipPath10005aa137c8-1e70-42eb-a397-17519ebb507f)"><path d=" M 0.6316923589020647 -0.18750000000000044 L -1.0430572851047686 -0.18750000000000044 C -1.0833098251699365 -0.1875496179795606 -1.1159285841551223 -0.22016837696474667 -1.1159782021346818 -0.2604209170299123 L -1.1159782021346818 -0.9495562273990414 C -1.1159285599737063 -0.9898051120026807 -1.083306183118329 -1.022417417114663 -1.043057285104767 -1.0224546310244989 L 0.6316923589020647 -1.0224546310244989 C 0.6719412569156267 -1.022417417114662 0.7045636337710037 -0.9898051120026801 0.7046132759319779 -0.9495562273990414 L 0.7046132759319779 -0.2603083500076373 C 0.7045017187384945 -0.22009977705013206 0.6719010562199306 -0.18754943972841698 0.6316923589020647 -0.18750000000000044 Z M -1.0259245843144742 -0.2775536178202067 L 0.6145596581117718 -0.2775536178202067 L 0.6145596581117718 -0.9324010132042919 L -1.0259245843144742 -0.9324010132042919 Z" fill="#525252" transform="matrix(1,0,0,1,0,0)" fill-rule="nonzero"></path></g><g clip-path="url(#SvgjsClipPath10005aa137c8-1e70-42eb-a397-17519ebb507f)"><path d=" M -0.9300399947404091 -0.7874597153226703 L -0.7987643333630032 -0.7874597153226703 Z" fill="#b7b7a5" transform="matrix(1,0,0,1,0,0)" fill-rule="nonzero"></path></g><g clip-path="url(#SvgjsClipPath10005aa137c8-1e70-42eb-a397-17519ebb507f)"><path d=" M -0.9300399947404091 -0.8324865242327733 L -0.7987643333630032 -0.8324865242327733 L -0.7987643333630032 -0.7424329064125668 L -0.9300399947404091 -0.7424329064125668 Z" fill="#ba8437" transform="matrix(1,0,0,1,0,0)" fill-rule="nonzero"></path></g><g clip-path="url(#SvgjsClipPath10005aa137c8-1e70-42eb-a397-17519ebb507f)"><path d=" M -0.7104442476858357 -0.7874597153226703 L -0.579191099712885 -0.7874597153226703 Z" fill="#b7b7a5" transform="matrix(1,0,0,1,0,0)" fill-rule="nonzero"></path></g><g clip-path="url(#SvgjsClipPath10005aa137c8-1e70-42eb-a397-17519ebb507f)"><path d=" M -0.7104442476858357 -0.8324865242327733 L -0.5791910997128848 -0.8324865242327733 L -0.5791910997128848 -0.7424329064125668 L -0.7104442476858357 -0.7424329064125668 Z" fill="#ba8437" transform="matrix(1,0,0,1,0,0)" fill-rule="nonzero"></path></g><g clip-path="url(#SvgjsClipPath10005aa137c8-1e70-42eb-a397-17519ebb507f)"><path d=" M -0.4908485006312625 -0.7874597153226703 L -0.3596403794672218 -0.7874597153226703 Z" fill="#b7b7a5" transform="matrix(1,0,0,1,0,0)" fill-rule="nonzero"></path></g><g clip-path="url(#SvgjsClipPath10005aa137c8-1e70-42eb-a397-17519ebb507f)"><path d=" M -0.4908485006312625 -0.8324865242327733 L -0.3596403794672218 -0.8324865242327733 L -0.3596403794672218 -0.7424329064125668 L -0.4908485006312625 -0.7424329064125668 Z" fill="#ba8437" transform="matrix(1,0,0,1,0,0)" fill-rule="nonzero"></path></g><g clip-path="url(#SvgjsClipPath10005aa137c8-1e70-42eb-a397-17519ebb507f)"><path d=" M -0.2712752669811441 -0.7874597153226703 L -0.14004463241264853 -0.7874597153226703 Z" fill="#b7b7a5" transform="matrix(1,0,0,1,0,0)" fill-rule="nonzero"></path></g><g clip-path="url(#SvgjsClipPath10005aa137c8-1e70-42eb-a397-17519ebb507f)"><path d=" M -0.2712752669811441 -0.8324865242327733 L -0.1400446324126483 -0.8324865242327733 L -0.1400446324126483 -0.7424329064125668 L -0.2712752669811441 -0.7424329064125668 Z" fill="#ba8437" transform="matrix(1,0,0,1,0,0)" fill-rule="nonzero"></path></g><g clip-path="url(#SvgjsClipPath10005aa137c8-1e70-42eb-a397-17519ebb507f)"><path d=" M -0.05167951992657094 -0.7874597153226703 L 0.07952860123746985 -0.7874597153226703 Z" fill="#b7b7a5" transform="matrix(1,0,0,1,0,0)" fill-rule="nonzero"></path></g><g clip-path="url(#SvgjsClipPath10005aa137c8-1e70-42eb-a397-17519ebb507f)"><path d=" M -0.05167951992657094 -0.8324865242327733 L 0.07952860123747008 -0.8324865242327733 L 0.07952860123747008 -0.7424329064125668 L -0.05167951992657094 -0.7424329064125668 Z" fill="#ba8437" transform="matrix(1,0,0,1,0,0)" fill-rule="nonzero"></path></g><g clip-path="url(#SvgjsClipPath10005aa137c8-1e70-42eb-a397-17519ebb507f)"><path d=" M 0.16791622712800236 -0.7874597153226703 L 0.299101834887588 -0.7874597153226703 Z" fill="#b7b7a5" transform="matrix(1,0,0,1,0,0)" fill-rule="nonzero"></path></g><g clip-path="url(#SvgjsClipPath10005aa137c8-1e70-42eb-a397-17519ebb507f)"><path d=" M 0.16791622712800236 -0.8324865242327733 L 0.299101834887588 -0.8324865242327733 L 0.299101834887588 -0.7424329064125668 L 0.16791622712800236 -0.7424329064125668 Z" fill="#ba8437" transform="matrix(1,0,0,1,0,0)" fill-rule="nonzero"></path></g><g clip-path="url(#SvgjsClipPath10005aa137c8-1e70-42eb-a397-17519ebb507f)"><path d=" M 0.3874669473736658 -0.7874597153226703 L 0.5186750685377064 -0.7874597153226703 Z" fill="#b7b7a5" transform="matrix(1,0,0,1,0,0)" fill-rule="nonzero"></path></g><g clip-path="url(#SvgjsClipPath10005aa137c8-1e70-42eb-a397-17519ebb507f)"><path d=" M 0.3874669473736658 -0.8324865242327733 L 0.5186750685377064 -0.8324865242327733 L 0.5186750685377064 -0.7424329064125668 L 0.3874669473736658 -0.7424329064125668 Z" fill="#ba8437" transform="matrix(1,0,0,1,0,0)" fill-rule="nonzero"></path></g><g clip-path="url(#SvgjsClipPath10005aa137c8-1e70-42eb-a397-17519ebb507f)"><path d=" M -0.9300399947404091 -0.6049660588100219 L -0.7987643333630032 -0.6049660588100219 Z" fill="#b7b7a5" transform="matrix(1,0,0,1,0,0)" fill-rule="nonzero"></path></g><g clip-path="url(#SvgjsClipPath10005aa137c8-1e70-42eb-a397-17519ebb507f)"><path d=" M -0.9300399947404091 -0.6499928677201248 L -0.7987643333630032 -0.6499928677201248 L -0.7987643333630032 -0.5599392498999187 L -0.9300399947404091 -0.5599392498999187 Z" fill="#ba8437" transform="matrix(1,0,0,1,0,0)" fill-rule="nonzero"></path></g><g clip-path="url(#SvgjsClipPath10005aa137c8-1e70-42eb-a397-17519ebb507f)"><path d=" M -0.7104442476858357 -0.6049660588100219 L -0.579191099712885 -0.6049660588100219 Z" fill="#b7b7a5" transform="matrix(1,0,0,1,0,0)" fill-rule="nonzero"></path></g><g clip-path="url(#SvgjsClipPath10005aa137c8-1e70-42eb-a397-17519ebb507f)"><path d=" M -0.7104442476858357 -0.6499928677201248 L -0.5791910997128848 -0.6499928677201248 L -0.5791910997128848 -0.5599392498999187 L -0.7104442476858357 -0.5599392498999187 Z" fill="#ba8437" transform="matrix(1,0,0,1,0,0)" fill-rule="nonzero"></path></g><g clip-path="url(#SvgjsClipPath10005aa137c8-1e70-42eb-a397-17519ebb507f)"><path d=" M -0.4908485006312625 -0.6049660588100219 L -0.3596403794672218 -0.6049660588100219 Z" fill="#b7b7a5" transform="matrix(1,0,0,1,0,0)" fill-rule="nonzero"></path></g><g clip-path="url(#SvgjsClipPath10005aa137c8-1e70-42eb-a397-17519ebb507f)"><path d=" M -0.4908485006312625 -0.6499928677201248 L -0.3596403794672218 -0.6499928677201248 L -0.3596403794672218 -0.5599392498999187 L -0.4908485006312625 -0.5599392498999187 Z" fill="#ba8437" transform="matrix(1,0,0,1,0,0)" fill-rule="nonzero"></path></g><g clip-path="url(#SvgjsClipPath10005aa137c8-1e70-42eb-a397-17519ebb507f)"><path d=" M -0.2712752669811441 -0.6049660588100219 L -0.14004463241264853 -0.6049660588100219 Z" fill="#b7b7a5" transform="matrix(1,0,0,1,0,0)" fill-rule="nonzero"></path></g><g clip-path="url(#SvgjsClipPath10005aa137c8-1e70-42eb-a397-17519ebb507f)"><path d=" M -0.2712752669811441 -0.6499928677201248 L -0.1400446324126483 -0.6499928677201248 L -0.1400446324126483 -0.5599392498999187 L -0.2712752669811441 -0.5599392498999187 Z" fill="#ba8437" transform="matrix(1,0,0,1,0,0)" fill-rule="nonzero"></path></g><g clip-path="url(#SvgjsClipPath10005aa137c8-1e70-42eb-a397-17519ebb507f)"><path d=" M -0.05167951992657094 -0.6049660588100219 L 0.07952860123746985 -0.6049660588100219 Z" fill="#b7b7a5" transform="matrix(1,0,0,1,0,0)" fill-rule="nonzero"></path></g><g clip-path="url(#SvgjsClipPath10005aa137c8-1e70-42eb-a397-17519ebb507f)"><path d=" M -0.05167951992657094 -0.6499928677201248 L 0.07952860123747008 -0.6499928677201248 L 0.07952860123747008 -0.5599392498999187 L -0.05167951992657094 -0.5599392498999187 Z" fill="#ba8437" transform="matrix(1,0,0,1,0,0)" fill-rule="nonzero"></path></g><g clip-path="url(#SvgjsClipPath10005aa137c8-1e70-42eb-a397-17519ebb507f)"><path d=" M 0.16791622712800236 -0.6049660588100219 L 0.299101834887588 -0.6049660588100219 Z" fill="#b7b7a5" transform="matrix(1,0,0,1,0,0)" fill-rule="nonzero"></path></g><g clip-path="url(#SvgjsClipPath10005aa137c8-1e70-42eb-a397-17519ebb507f)"><path d=" M 0.16791622712800236 -0.6499928677201248 L 0.299101834887588 -0.6499928677201248 L 0.299101834887588 -0.5599392498999187 L 0.16791622712800236 -0.5599392498999187 Z" fill="#ba8437" transform="matrix(1,0,0,1,0,0)" fill-rule="nonzero"></path></g><g clip-path="url(#SvgjsClipPath10005aa137c8-1e70-42eb-a397-17519ebb507f)"><path d=" M 0.3874669473736658 -0.6049660588100219 L 0.5186750685377064 -0.6049660588100219 Z" fill="#b7b7a5" transform="matrix(1,0,0,1,0,0)" fill-rule="nonzero"></path></g><g clip-path="url(#SvgjsClipPath10005aa137c8-1e70-42eb-a397-17519ebb507f)"><path d=" M 0.3874669473736658 -0.6499928677201248 L 0.5186750685377064 -0.6499928677201248 L 0.5186750685377064 -0.5599392498999187 L 0.3874669473736658 -0.5599392498999187 Z" fill="#ba8437" transform="matrix(1,0,0,1,0,0)" fill-rule="nonzero"></path></g><g clip-path="url(#SvgjsClipPath10005aa137c8-1e70-42eb-a397-17519ebb507f)"><path d=" M -0.9300399947404091 -0.4224949157018285 L -0.7987643333630032 -0.4224949157018285 Z" fill="#b7b7a5" transform="matrix(1,0,0,1,0,0)" fill-rule="nonzero"></path></g><g clip-path="url(#SvgjsClipPath10005aa137c8-1e70-42eb-a397-17519ebb507f)"><path d=" M -0.9300399947404091 -0.46752172461193187 L -0.7987643333630032 -0.46752172461193187 L -0.7987643333630032 -0.37746810679172516 L -0.9300399947404091 -0.37746810679172516 Z" fill="#ba8437" transform="matrix(1,0,0,1,0,0)" fill-rule="nonzero"></path></g><g clip-path="url(#SvgjsClipPath10005aa137c8-1e70-42eb-a397-17519ebb507f)"><path d=" M -0.7104442476858357 -0.4224949157018285 L -0.579191099712885 -0.4224949157018285 Z" fill="#b7b7a5" transform="matrix(1,0,0,1,0,0)" fill-rule="nonzero"></path></g><g clip-path="url(#SvgjsClipPath10005aa137c8-1e70-42eb-a397-17519ebb507f)"><path d=" M -0.7104442476858357 -0.46752172461193187 L -0.5791910997128848 -0.46752172461193187 L -0.5791910997128848 -0.37746810679172516 L -0.7104442476858357 -0.37746810679172516 Z" fill="#ba8437" transform="matrix(1,0,0,1,0,0)" fill-rule="nonzero"></path></g><g clip-path="url(#SvgjsClipPath10005aa137c8-1e70-42eb-a397-17519ebb507f)"><path d=" M -0.4908485006312625 -0.4224949157018285 L 0.3011505546929978 -0.4224949157018285 Z" fill="#b7b7a5" transform="matrix(1,0,0,1,0,0)" fill-rule="nonzero"></path></g><g clip-path="url(#SvgjsClipPath10005aa137c8-1e70-42eb-a397-17519ebb507f)"><path d=" M -0.4908485006312625 -0.46752172461193187 L 0.3011730680974529 -0.46752172461193187 L 0.3011730680974529 -0.37746810679172516 L -0.4908485006312625 -0.37746810679172516 Z" fill="#ba8437" transform="matrix(1,0,0,1,0,0)" fill-rule="nonzero"></path></g><g clip-path="url(#SvgjsClipPath10005aa137c8-1e70-42eb-a397-17519ebb507f)"><path d=" M 0.3874669473736658 -0.4224949157018285 L 0.5186750685377064 -0.4224949157018285 Z" fill="#b7b7a5" transform="matrix(1,0,0,1,0,0)" fill-rule="nonzero"></path></g><g clip-path="url(#SvgjsClipPath10005aa137c8-1e70-42eb-a397-17519ebb507f)"><path d=" M 0.3874669473736658 -0.46752172461193187 L 0.5186750685377064 -0.46752172461193187 L 0.5186750685377064 -0.37746810679172516 L 0.3874669473736658 -0.37746810679172516 Z" fill="#ba8437" transform="matrix(1,0,0,1,0,0)" fill-rule="nonzero"></path></g><g clip-path="url(#SvgjsClipPath10005aa137c8-1e70-42eb-a397-17519ebb507f)"><path d=" M -0.3378474039547317 -1.8068216422384964 L -0.29282059504462854 -1.8068216422384964 L -0.29282059504462854 -1.7167680244182897 L -0.3378474039547317 -1.7167680244182897 Z" fill="#525252" transform="matrix(1,0,0,1,0,0)" fill-rule="nonzero"></path></g><g clip-path="url(#SvgjsClipPath10005aa137c8-1e70-42eb-a397-17519ebb507f)"><path d=" M -0.35115282598766895 -1.2058713371198047 L -0.43895510336236876 -1.2058713371198047 L -0.43895510336236876 -1.2959249549400107 L -0.35115282598766895 -1.2959249549400107 Z M -0.5267573807370703 -1.2058713371198047 L -0.6145596581117718 -1.2058713371198047 L -0.6145596581117718 -1.2959249549400107 L -0.5267573807370703 -1.2959249549400107 Z M -0.7023619354864733 -1.2058713371198047 L -0.7331377593765288 -1.2058713371198047 C -0.7554963283126443 -1.2058590842535999 -0.7777867809949462 -1.2083358012183008 -0.7995973293278422 -1.2132557337810617 L -0.7797405065984857 -1.3010580111557624 C -0.7644447437410171 -1.2976211931272266 -0.74881487557931 -1.2958920917702064 -0.7331377593765288 -1.2959024415355558 L -0.7023619354864733 -1.2959024415355558 Z M -0.8944688157014292 -1.2527892720041316 C -0.9235413291723756 -1.271315658205169 -0.9492190296638624 -1.2946936358175247 -0.9703840155238628 -1.3219054236811405 L -0.8993091976592659 -1.3772208584272019 C -0.8844713945494803 -1.358130592372021 -0.8664608023223026 -1.3417344802937496 -0.8460649961230693 -1.328749498635476 Z M -1.0187202948888587 -1.4126344436349982 C -1.0286505709917975 -1.4429140094334583 -1.033696696956981 -1.4745814896999074 -1.0336691954470127 -1.5064477999991985 L -1.0336691954470127 -1.5142149245361907 L -0.9436155776268066 -1.511963584090686 L -0.9436155776268066 -1.5064252865947427 C -0.9436362930959189 -1.484104715616014 -0.9401102596234632 -1.4619226214218437 -0.9331693579596618 -1.4407086589904483 Z M -0.9294771596290341 -1.5824755668439079 L -1.013429644841922 -1.6150074362814575 C -1.0009735510955193 -1.6471634635089338 -0.9830600282575185 -1.6769279393809176 -0.9604781175636412 -1.7029898208917988 L -0.8923750690871104 -1.644072241432929 C -0.9081657630939022 -1.6257730399720058 -0.9206861803875561 -1.6048904461647062 -0.9293871060112124 -1.582340486417177 Z M -0.8366994198697675 -1.6897294256677737 L -0.8810733400506741 -1.7680760731713534 C -0.8510511198465762 -1.7851149483414557 -0.8182935391330981 -1.7968010248099389 -0.784265700893954 -1.8026116356054016 L -0.7690466394823368 -1.7138637952435887 C -0.7928023052668739 -1.7097447203206917 -0.815662597217218 -1.7015329926557565 -0.8366093662519459 -1.689594345241043 Z M -0.425717221542801 -1.7169031048450205 L -0.5135194989175008 -1.7169031048450205 L -0.5135194989175008 -1.8069567226652277 L -0.425717221542801 -1.8069567226652277 Z M -0.601321776292204 -1.7169031048450205 L -0.6891240536669039 -1.7169031048450205 L -0.6891240536669039 -1.8069567226652277 L -0.601321776292204 -1.8069567226652277 Z" fill="#525252" transform="matrix(1,0,0,1,0,0)" fill-rule="nonzero"></path></g><g clip-path="url(#SvgjsClipPath10005aa137c8-1e70-42eb-a397-17519ebb507f)"><path d=" M -0.26283274031049975 -1.2958349013221901 L -0.2178059314003966 -1.2958349013221901 L -0.2178059314003966 -1.2057812835019839 L -0.26283274031049975 -1.2057812835019839 Z" fill="#525252" transform="matrix(1,0,0,1,0,0)" fill-rule="nonzero"></path></g><g clip-path="url(#SvgjsClipPath10005aa137c8-1e70-42eb-a397-17519ebb507f)"><path d=" M -0.2235693629408898 -1.2958349013221901 L -0.17854255403078645 -1.2958349013221901 L -0.17854255403078645 -1.2057812835019839 L -0.2235693629408898 -1.2057812835019839 Z" fill="#525252" transform="matrix(1,0,0,1,0,0)" fill-rule="nonzero"></path></g><g clip-path="url(#SvgjsClipPath10005aa137c8-1e70-42eb-a397-17519ebb507f)"><path d=" M 0.8458173486740619 -0.7556032480187724 L 0.7893537303007916 -0.7556032480187724 L 0.7893537303007916 -0.8456568658389785 L 0.8458173486740619 -0.8456568658389785 C 0.8546251084160765 -0.8456490772928358 0.8634215287638973 -0.8462886801410521 0.8721355184820165 -0.8475705052176583 L 0.8851932930659459 -0.7584624503845645 C 0.872154013046196 -0.7565618924356792 0.8589944095914228 -0.7556063351808162 0.8458173486740601 -0.7556032480187724 Z M 0.985558050126567 -0.7945289243215574 L 0.938932789500154 -0.8715472809622882 C 0.9594262332709551 -0.8839333468823396 0.9772440493988901 -0.900281652401786 0.9913439950715133 -0.9196359128782783 L 1.064062291461331 -0.8664817649599017 C 1.042944812374969 -0.8374864367816188 1.016256106429895 -0.8129943636459043 0.985558050126567 -0.7944388707037373 Z M 1.108728885900153 -0.9633794577344441 L 1.021084202356639 -0.9840917898330912 C 1.024311467614393 -0.9977625485312844 1.0259358672879548 -1.0117626071131984 1.0259245843144726 -1.0258091282883015 C 1.025920504256439 -1.0356581677143133 1.0251224457845622 -1.0454908503961269 1.023538163442241 -1.055211634506584 L 1.1123985708263269 -1.069777807189018 C 1.1147851955606494 -1.0552432770711286 1.1159823748798972 -1.0405383009045268 1.1159782021346802 -1.0258091282883015 C 1.116001109873785 -1.0047433695627264 1.1135682520905998 -0.9837467491295873 1.1087288859001498 -0.9632443773077006 Z M 0.9984132040704004 -1.1215586374356368 C 0.9856696009828809 -1.1418394515443413 0.9690162647894391 -1.1593805574980967 0.9494240359762087 -1.1731593604466153 L 1.001317433245104 -1.2467556796101784 C 1.0306434481830018 -1.2261363015096651 1.0555638079633014 -1.1998765489279057 1.0746210781507513 -1.1695121889248967 Z M 0.8845178909322944 -1.2017738975089853 C 0.8718022090649229 -1.2045300174577938 0.8588282962536014 -1.2059187318017628 0.8458173486740601 -1.2059163639287147 L 0.8050680866104172 -1.2059163639287147 L 0.8050680866104172 -1.2959699817489208 L 0.8458173486740619 -1.2959699817489208 C 0.8652703708946134 -1.295970568524636 0.8846674977323556 -1.2938874529576256 0.9036767981235436 -1.289756282119327 Z M 0.7156673575194068 -1.2059163639287147 L 0.626244115023944 -1.2059163639287147 L 0.626244115023944 -1.2959699817489208 L 0.7156673575194068 -1.2959699817489208 Z M 0.5368208725284778 -1.2059163639287147 L 0.4474201434374674 -1.2059163639287147 L 0.4474201434374674 -1.2959699817489208 L 0.5368208725284778 -1.2959699817489208 Z M 0.35797438753754696 -1.2059163639287147 L 0.2685736584465366 -1.2059163639287147 L 0.2685736584465366 -1.2959699817489208 L 0.35797438753754696 -1.2959699817489208 Z M 0.17915041595107195 -1.2059163639287147 L 0.08977220026451893 -1.2059163639287147 L 0.08977220026451893 -1.2959699817489208 L 0.17919544275998356 -1.2959699817489208 Z M 0.00030393096014291743 -1.2059163639287147 L -0.08909679813086746 -1.2059163639287147 L -0.08909679813086746 -1.2959699817489208 L 0.00030393096014291743 -1.2959699817489208 Z" fill="#525252" transform="matrix(1,0,0,1,0,0)" fill-rule="nonzero"></path></g><g clip-path="url(#SvgjsClipPath10005aa137c8-1e70-42eb-a397-17519ebb507f)"><path d=" M 0.6544534108061226 -0.8455668122211581 L 0.6994802197162258 -0.8455668122211581 L 0.6994802197162258 -0.7555131944009517 L 0.6544534108061226 -0.7555131944009517 Z" fill="#525252" transform="matrix(1,0,0,1,0,0)" fill-rule="nonzero"></path></g><g clip-path="url(#SvgjsClipPath10005aa137c8-1e70-42eb-a397-17519ebb507f)"><path d=" M -0.01378946022871963 -2.2074026477072297 L -0.2969630614643576 -2.204656012363713 C -0.4182877980726307 -2.201324028504365 -0.5157483259585497 -2.13146493448034 -0.5144650619046108 -2.0497412763085032 C -0.5136695882805342 -1.966036438544621 -0.5128666101883019 -1.8822865739718295 -0.5120561276279204 -1.7984916825901274 C -0.510817890382893 -1.7171282388895706 -0.4701136551281585 -1.6557792117495553 -0.2992594287187722 -1.576914755943509 C -0.20591819702696157 -1.5322114874096846 -0.10776612867986302 -1.4983409414293556 -0.006720251229830998 -1.4759646503670565 Z" fill="#b7b7a5" transform="matrix(1,0,0,1,0,0)" fill-rule="nonzero"></path></g><g clip-path="url(#SvgjsClipPath10005aa137c8-1e70-42eb-a397-17519ebb507f)"><path d=" M -0.006742764634288356 -1.43100538167032 C -0.00976769447709458 -1.4310144301660577 -0.012784261407785102 -1.4313236282764534 -0.015748126416308628 -1.4319284312529774 C -0.1202028232657929 -1.4549118909126686 -0.22165818268368076 -1.4898660195818112 -0.3181031482476514 -1.536097953666501 C -0.49060085318225655 -1.6157278652240188 -0.5553494043949854 -1.6866676026618859 -0.5570604231335684 -1.7978838206698415 L -0.5594693574102605 -2.0493810618372232 C -0.5611578627443894 -2.1574454032214714 -0.4463845268325358 -2.2456754352808175 -0.29817878530493225 -2.249750361487182 L -0.014194701508911223 -2.2525195102351536 C -0.002188090294081624 -2.25296503481933 0.009439467195816453 -2.248273069719534 0.017774332817261485 -2.239619329482408 C 0.02630178619235979 -2.2312619696699656 0.031160662189116284 -2.219859807330911 0.03128237549029422 -2.2079204560096954 L 0.0383515844891813 -1.4765049720739796 C 0.03849134261059728 -1.4628939941847947 0.032466413720681375 -1.4499503282729398 0.02196182604590402 -1.44129400750628 C 0.013876734664445944 -1.4346386747119746 0.003729204714362 -1.4310014816239836 -0.006742764634288356 -1.43100538167032 Z M -0.058388514454176255 -2.1620156243258455 L -0.29655782018416754 -2.1597642838803406 C -0.39908386407247154 -2.1569501083234597 -0.4702487355548901 -2.0999461682432687 -0.4694607663989644 -2.0505967856777954 L -0.4670518321222723 -1.7990770311059596 C -0.46628637637080084 -1.7487820855533742 -0.4514275294304667 -1.6968886882844807 -0.28041570918989456 -1.6179341788606143 C -0.20695924741815264 -1.5831613433377416 -0.1306413326507725 -1.5547869271386972 -0.05230989525131058 -1.5331261842784347 Z" fill="#525252" transform="matrix(1,0,0,1,0,0)" fill-rule="nonzero"></path></g><g clip-path="url(#SvgjsClipPath10005aa137c8-1e70-42eb-a397-17519ebb507f)"><path d=" M -0.014419835553459714 -2.2074026477072297 C 0.0799563559221157 -2.2083181928217352 0.17436256527029936 -2.209218728999937 0.2687987924910882 -2.210104256241836 C 0.39012352909936143 -2.209113666445813 0.48891234784812765 -2.1411682118004673 0.4892050221060451 -2.0594220402241747 C 0.4900155046664265 -1.9756721756513835 0.4908184827586557 -1.8919223110785912 0.49161395638273553 -1.8081724465057998 C 0.4919966842584713 -1.726809002805243 0.4524406326309456 -1.6646720065093006 0.2831623445334124 -1.582565620461728 C 0.19073466920340687 -1.5360776431588503 0.09329404402561137 -1.5003116462428145 -0.00726057293675253 -1.475964650367058 Z" fill="#b7b7a5" transform="matrix(1,0,0,1,0,0)" fill-rule="nonzero"></path></g><g clip-path="url(#SvgjsClipPath10005aa137c8-1e70-42eb-a397-17519ebb507f)"><path d=" M -0.007373139959029995 -1.43100538167032 C -0.01751757230541462 -1.4309974091009412 -0.027365633979187898 -1.4344255820607077 -0.035312274887747686 -1.4407311723949017 C -0.0459859766688957 -1.4491756427011666 -0.05226733118027349 -1.46199490243519 -0.05239994886913224 -1.4756044358957774 L -0.059446644463563514 -2.207042433235949 C -0.05956063251241228 -2.218984445517944 -0.05492572729694101 -2.2304825688921417 -0.0465616664769688 -2.2390070710605023 C -0.03819760565699659 -2.247531573228863 -0.026789612758888248 -2.252384086548922 -0.014847590238107111 -2.2524969968306983 L 0.2683485244019881 -2.255198605365304 C 0.417409775298885 -2.254005394929187 0.5338265897359558 -2.16809424352871 0.5342318310161474 -2.0596696876731815 L 0.5366407652928393 -1.8086902548082664 C 0.5371360601908493 -1.6972263893513055 0.4737608266498794 -1.6250484146684099 0.30281654662267155 -1.542131546060455 C 0.20728359531950025 -1.4940372047751502 0.10652354962807564 -1.4571190503821394 0.002532758001193347 -1.432108538488618 C -0.0007179302439275226 -1.431373707823331 -0.004040431248022003 -1.431003702029693 -0.007373139959029995 -1.4310053816703208 Z M 0.031034728041288373 -2.1628711336951376 L 0.03711334724415227 -1.5339366668388164 C 0.11499646808796471 -1.5571012881966497 0.19073495038074562 -1.5869447359185784 0.26348562903969586 -1.62313477528973 C 0.43298905118178066 -1.7053537283595785 0.44683479492163736 -1.7575172864819337 0.4465871474726315 -1.808059879483524 L 0.44420072660039533 -2.05712567296976 C 0.44399810596029954 -2.108726395980738 0.3717751044684954 -2.16431199158026 0.26843857801980664 -2.1651900143540073 Z" fill="#525252" transform="matrix(1,0,0,1,0,0)" fill-rule="nonzero"></path></g><g clip-path="url(#SvgjsClipPath10005aa137c8-1e70-42eb-a397-17519ebb507f)"><path d=" M -0.009872127853540302 -1.7610068641724663 L -0.9562005707171787 -2.115750578170714 L -0.01685128323460594 -2.488775176586464 L 0.9295221864379442 -2.1339414089703963 Z" fill="#b7b7a5" transform="matrix(1,0,0,1,0,0)" fill-rule="nonzero"></path></g><g clip-path="url(#SvgjsClipPath10005aa137c8-1e70-42eb-a397-17519ebb507f)"><path d=" M -0.00928677933770894 -1.7127606384252905 L -1.0811274520382612 -2.114557367734597 L -0.01721149770588748 -2.537043915738095 L 1.0546967152080309 -2.1351346194065135 Z M -0.8310260419470936 -2.116966302011287 L -0.01020982892036626 -1.8092756033240973 L 0.8045727917124057 -2.132725685129823 L -0.016288448123231714 -2.4405289508392887 Z" fill="#525252" transform="matrix(1,0,0,1,0,0)" fill-rule="nonzero"></path></g><g clip-path="url(#SvgjsClipPath10005aa137c8-1e70-42eb-a397-17519ebb507f)"><path d=" M 0.5178420725728694 -1.6126435288136762 L 0.5157933527674599 -1.9574588314472465 L -0.058073326791805435 -2.1726419512286297 L -0.026464506936913157 -2.256954650912798 L 0.6054642427119301 -2.0200010690233796 L 0.6078956903930759 -1.6131613371161424 L 0.5178420725728694 -1.6126435288136762 Z" fill="#cf9645" transform="matrix(1,0,0,1,0,0)" fill-rule="nonzero"></path></g><g clip-path="url(#SvgjsClipPath10005aa137c8-1e70-42eb-a397-17519ebb507f)"><path d=" M 0.08963711983778744 -2.2221714410297433 C 0.08990728069124732 -2.1931966894960917 0.043867368580667865 -2.1693775075826474 -0.01313657149952241 -2.168814672471271 C -0.07014051157971402 -2.1682518373598945 -0.11658566497048528 -2.191328076926323 -0.11690085263285532 -2.2201677480332442 C -0.11721604029522525 -2.249007419140165 -0.0711986415891015 -2.2728040876491544 -0.014149674699999615 -2.273366922760531 C 0.042899292189102045 -2.2739297578719073 0.08936695898432756 -2.2509885987322096 0.08963711983778744 -2.2221714410297433 Z" fill="#b7b7a5" transform="matrix(1,0,0,1,0,0)" fill-rule="nonzero"></path></g><g clip-path="url(#SvgjsClipPath10005aa137c8-1e70-42eb-a397-17519ebb507f)"><path d=" M -0.015050210878202908 -2.123787863561168 C -0.09956553120246658 -2.123787863561168 -0.1613873398360376 -2.164109370940165 -0.16192766154295912 -2.2196724531352325 C -0.16246798324988065 -2.2759559642728613 -0.1004885807851239 -2.317538222301342 -0.014577429384645457 -2.3183937316706333 L -0.012100954894589178 -2.3183937316706333 C 0.07243687883412875 -2.3183937316706333 0.13423617406324562 -2.278094737696091 0.13466392874789124 -2.222576682309934 C 0.13518173705035874 -2.166293171172305 0.07320233458560033 -2.1246433729304592 -0.012686303410420763 -2.123787863561167 Z M -0.058816269138821875 -2.22059550271789 C -0.04472084305329549 -2.215859235336348 -0.02991769707700276 -2.213574799228895 -0.015050210878201131 -2.2138414813813743 L -0.015050210878201131 -2.168814672471271 L -0.013541812779714002 -2.2138414813813743 C 0.0018473142233017548 -2.2137382327388027 0.017134503182944405 -2.2163445231795786 0.03162007655711996 -2.221541065705003 C 0.017536631533742186 -2.2262627639206656 0.0027507944525111405 -2.2285468788147793 -0.012100954894590732 -2.228295087041518 C -0.027996057303674604 -2.22846044258761 -0.043800241979252696 -2.2258784577177204 -0.058816269138821875 -2.220663042931255 Z" fill="#525252" transform="matrix(1,0,0,1,0,0)" fill-rule="nonzero"></path></g><g clip-path="url(#SvgjsClipPath10005aa137c8-1e70-42eb-a397-17519ebb507f)"><path d=" M 0.6847339397981655 -1.411283639367695 L 0.6847339397981655 -1.5802917666117675 C 0.6847339397981655 -1.6336035083613292 0.6327279755069961 -1.6768517583194833 0.5686548264279205 -1.6768517583194833 C 0.5045816773488432 -1.6768517583194833 0.45259822646212977 -1.6336035083613292 0.45259822646212977 -1.5802917666117675 L 0.45259822646212977 -1.411283639367695 Z" fill="#cf9645" transform="matrix(1,0,0,1,0,0)" fill-rule="nonzero"></path></g></g></g></g><defs><clipPath id="SvgjsClipPath1002"><path d=" M -1.1159782021346802 -2.537043915738095 h 2.2319564042693605 v 2.349543915738095 h -2.2319564042693605 Z"></path></clipPath><clipPath id="SvgjsClipPath10005aa137c8-1e70-42eb-a397-17519ebb507f"><path d=" M -1.1159782021346802 -2.537043915738095 L 1.1159782021346802 -2.537043915738095 L 1.1159782021346802 -0.1875 L -1.1159782021346802 -0.1875 Z"></path></clipPath></defs></svg>